HIERARCHY
ROOT hip
{
	OFFSET 0.000000 0.000000 0.000000 
	CHANNELS 6 Xposition Yposition Zposition Xrotation Zrotation Yrotation
	JOINT abdomen
	{
		OFFSET 0.000000 3.402643 0.000000 
		CHANNELS 3 Xrotation Zrotation Yrotation
		JOINT chest
		{
			OFFSET 0.000000 8.438565 -0.680529 
			CHANNELS 3 Xrotation Zrotation Yrotation
			JOINT neck
			{
				OFFSET 0.000000 10.207942 -0.272212 
				CHANNELS 3 Xrotation Zrotation Yrotation
				JOINT head
				{
					OFFSET 0.000000 3.130431 0.000000 
					CHANNELS 3 Xrotation Zrotation Yrotation
					End Site
					{
						OFFSET 0.000000 3.130435 0.000000 
					}
				}
			}
			JOINT lCollar
			{
				OFFSET 3.470700 6.669187 -0.816635 
				CHANNELS 3 Yrotation Zrotation Xrotation
				JOINT lShldr
				{
					OFFSET 3.198488 0.000000 0.000000 
					CHANNELS 3 Zrotation Yrotation Xrotation
					JOINT lForeArm
					{
						OFFSET 10.139888 0.000000 0.000000 
						CHANNELS 3 Yrotation Zrotation Xrotation
						JOINT lHand
						{
							OFFSET 8.370511 0.000000 0.000000 
							CHANNELS 3 Zrotation Yrotation Xrotation
							End Site
							{
								OFFSET 4.083176 0.000000 0.000000 
							}
						}
					}
				}
			}
			JOINT rCollar
			{
				OFFSET -3.470700 6.669187 -0.816635 
				CHANNELS 3 Yrotation Zrotation Xrotation
				JOINT rShldr
				{
					OFFSET -3.198488 0.000000 0.000000 
					CHANNELS 3 Zrotation Yrotation Xrotation
					JOINT rForeArm
					{
						OFFSET -10.139888 0.000000 0.000000 
						CHANNELS 3 Yrotation Zrotation Xrotation
						JOINT rHand
						{
							OFFSET -8.370511 0.000000 0.000000 
							CHANNELS 3 Zrotation Yrotation Xrotation
							End Site
							{
								OFFSET -4.083176 0.000000 0.000000 
							}
						}
					}
				}
			}
		}
	}
	JOINT lThigh
	{
		OFFSET 5.308129 -1.633274 1.361059 
		CHANNELS 3 Xrotation Zrotation Yrotation
		JOINT lShin
		{
			OFFSET -2.041588 -20.007561 0.000000 
			CHANNELS 3 Xrotation Zrotation Yrotation
			JOINT lFoot
			{
				OFFSET 0.000000 -19.190928 -1.224953 
				CHANNELS 3 Xrotation Yrotation Zrotation
				End Site
				{
					OFFSET 0.000000 -2.449906 4.627600 
				}
			}
		}
	}
	JOINT rThigh
	{
		OFFSET -5.308129 -1.633274 1.361059 
		CHANNELS 3 Xrotation Zrotation Yrotation
		JOINT rShin
		{
			OFFSET 2.041588 -20.007561 0.000000 
			CHANNELS 3 Xrotation Zrotation Yrotation
			JOINT rFoot
			{
				OFFSET 0.000000 -19.190928 -1.224953 
				CHANNELS 3 Xrotation Yrotation Zrotation
				End Site
				{
					OFFSET 0.000000 -2.449906 4.627600 
				}
			}
		}
	}
}
MOTION
Frames: 16
Frame Time: 0.016667
-41.244003 29.958008 15.184323 2.987301 -14.609877 79.694824 46.093315 13.854757 -27.963573 -20.839844 0.000000 0.000000 -20.779562 5.383515 49.791958 8.603792 -1.684224 0.126603 -4.754609 -0.109183 -0.002653 -108.218994 -78.826538 75.674477 -75.433289 -36.611565 24.986773 -154.485046 192.869934 58.532883 4.754609 0.109183 -0.002672 101.160454 -17.529423 -9.896119 -1.051205 0.338863 21.434141 174.943893 148.344513 -32.294735 -66.350189 57.696980 8.798719 70.993256 -14.985025 -1.328520 0.591608 -1.979949 -0.593334 -45.380810 -33.160305 15.137842 43.231743 -20.813784 9.185638 -3.410039 -22.487507 39.002167 
-40.261696 30.248650 15.091374 3.625242 -13.470073 77.404671 46.512531 13.122232 -28.104649 -20.839844 0.000000 0.000000 -19.249870 7.151026 51.318539 8.603792 -1.684224 0.126603 -4.754609 -0.109183 -0.002653 -95.560623 -70.689644 61.257248 -77.633362 -39.961285 26.300724 -153.282440 193.818115 55.474346 4.754609 0.109183 -0.002672 101.057976 -16.881538 -9.944846 -0.319712 0.319355 21.211668 173.717972 147.405426 -32.598866 -63.423634 56.577354 8.934413 72.499886 -12.905885 0.175854 -1.443069 1.660254 -0.952141 -42.704617 -33.404060 15.597741 40.018341 -20.979168 10.387527 -2.118709 -23.638313 40.391285 
-39.174530 30.554619 15.022916 3.491787 -11.795084 77.702477 46.401772 12.151719 -26.601919 -20.839844 0.000000 0.000000 -17.034563 8.027831 53.230042 8.603792 -1.684224 0.126603 -4.754609 -0.109183 -0.002653 -62.331009 -64.992043 29.684244 -83.142212 -38.465008 21.231565 -150.740891 193.362000 58.182434 4.754609 0.109183 -0.002672 95.797310 -14.512540 -9.426233 1.760565 0.242952 19.028503 170.385468 147.922165 -29.750109 -61.872910 54.577354 8.966298 74.340431 -11.735327 2.873359 -1.356638 6.621648 0.221715 -37.110764 -35.112801 14.201994 36.647655 -20.279369 10.567949 -0.135012 -25.312166 43.186958 
-37.942543 30.944855 14.952947 2.665289 -9.725996 80.652817 45.644650 11.237518 -23.583220 -20.839844 0.000000 0.000000 -14.403790 8.167101 56.410408 8.603792 -1.684224 0.126603 -4.754609 -0.109183 -0.002653 -34.215889 -55.262871 4.247971 -83.794601 -33.912746 15.185453 -148.969070 192.104980 65.555962 4.754609 0.109183 -0.002672 87.493675 -11.062460 -9.097007 2.207634 0.202937 17.028852 167.949783 149.896133 -27.087727 -60.738556 51.978077 9.837107 75.659607 -12.175328 6.474236 -1.452315 12.170213 3.119589 -27.687696 -38.147362 8.129780 31.822021 -18.900482 9.206604 2.498022 -25.018068 46.542728 
-36.460938 31.442883 14.733312 1.270265 -7.371255 85.851471 44.268108 10.299170 -19.456587 -20.839844 0.000000 0.000000 -11.821856 8.056149 60.939030 8.603792 -1.684224 0.126603 -4.754609 -0.109183 -0.002653 -23.397234 -44.728729 -7.058519 -78.936600 -27.352018 11.815117 -151.075562 191.685455 72.581596 4.754609 0.109183 -0.002672 77.983643 -8.692429 -9.489204 1.400230 0.205525 16.648258 167.095505 151.623871 -25.928637 -58.716194 48.461300 11.447522 75.964394 -13.324216 9.635305 -5.166234 16.234922 6.805187 -13.280737 -40.933819 -3.932582 24.604551 -16.870968 5.748130 5.542661 -21.494133 47.524845 
-34.686089 32.101303 14.262868 -0.656595 -4.794609 92.583984 42.470734 8.930739 -14.715798 -20.839844 0.000000 0.000000 -9.759766 8.208158 65.669930 8.603792 -1.684224 0.126603 -4.754609 -0.109183 -0.002653 -20.524902 -34.704365 -12.721620 -78.076698 -20.507067 9.063574 -154.087372 190.770630 74.864815 4.754609 0.109183 -0.002672 68.266235 -6.654452 -10.097631 0.054096 0.203436 16.212624 166.596558 152.898529 -23.881138 -55.823772 43.879333 12.243091 75.676300 -13.228724 10.678173 -10.109300 17.329638 8.511525 5.183269 -39.186359 -15.469900 14.708913 -15.770917 -0.174255 11.768798 -20.029015 43.406609 
-32.695984 32.974747 13.601373 -0.117293 -2.431635 100.327232 40.587448 6.463567 -9.887578 -20.839844 0.000000 0.000000 -8.394058 8.793991 68.668671 8.603792 -1.684224 0.126603 -4.754609 -0.109183 -0.002653 -20.315861 -23.301174 -15.656144 -81.373558 -15.612520 7.017077 -155.782196 187.939896 74.121101 4.754609 0.109183 -0.002672 59.195168 -4.159257 -10.486732 -0.442433 0.186401 14.763753 166.066330 154.446167 -20.090395 -52.488636 38.523613 11.718088 74.757019 -11.616745 10.059081 -12.955995 16.503532 7.856567 21.561668 -33.710316 -18.417353 4.944459 -16.030781 -4.775868 25.659224 -22.794226 37.481022 
-30.581043 34.089302 12.845414 0.185556 -0.566403 108.337914 38.980923 3.206139 -5.200364 -20.839844 0.000000 0.000000 -7.747249 9.461423 68.558617 8.603792 -1.684224 0.126603 -4.754609 -0.109183 -0.002653 -22.365608 -12.234794 -15.192856 -80.979736 -14.279728 7.850082 -159.693832 185.863998 71.854591 4.754609 0.109183 -0.002672 50.956013 1.686544 -10.451695 -0.374015 0.160083 13.203990 165.426575 155.303925 -16.266985 -48.664490 32.815170 10.685477 72.699272 -9.703343 9.019327 -14.661749 15.036344 7.273974 27.622509 -29.733631 -12.916518 10.035062 -13.946525 -2.371276 41.213455 -21.641653 39.231804 
-28.407473 35.405102 12.150724 1.064479 0.400322 116.726250 37.941105 -0.594963 -1.008333 -20.839844 0.000000 0.000000 -7.706193 9.830472 65.108231 8.603792 -1.684224 0.126603 -4.754609 -0.109183 -0.002653 -26.884304 -4.883626 -11.367375 -72.681290 -16.876461 11.328822 -167.121964 187.360596 71.215477 4.754609 0.109183 -0.002672 43.460106 13.637977 -10.533668 -0.398287 -0.205150 12.210398 164.379532 153.507828 -13.105918 -44.580269 26.972906 9.456827 69.018204 -8.079669 8.090694 -15.520085 13.448519 7.170195 21.049870 -27.242529 -10.003311 31.928371 -8.850306 1.019124 40.599056 -10.924735 32.693844 
-26.229044 36.959446 11.677214 2.304700 0.185397 125.915695 37.581596 -4.907499 2.137494 -20.839844 0.000000 0.000000 -8.152509 9.895091 58.778175 8.603792 -1.684224 0.126603 -4.754609 -0.109183 -0.002653 -33.510231 -3.653749 -6.361275 -58.902542 -19.294626 14.671456 -176.205460 191.005585 74.980858 4.754609 0.109183 -0.002672 36.284550 20.696985 -11.861129 21.343977 4.123363 10.228183 164.275955 159.838837 -10.561912 -40.244160 21.259813 8.055614 62.698727 -6.820220 6.554380 -14.455885 10.884400 6.335865 10.152890 -26.264351 -13.418455 56.840839 -2.834924 0.880252 29.876558 -3.059089 21.404894 
-24.031763 38.846317 11.495367 3.340451 -1.091892 136.869690 37.906872 -8.789498 3.678920 -20.839844 0.000000 0.000000 -8.971192 9.980754 50.242371 8.603792 -1.684224 0.126603 -4.754609 -0.109183 -0.002653 -42.146854 -8.907299 -2.898718 -45.714565 -17.091774 15.428040 173.446304 193.366196 79.067749 4.754609 0.109183 -0.002672 30.342682 27.638151 -13.905398 51.294701 9.764759 3.571359 164.261688 170.235641 -6.720489 -35.114681 16.853962 7.138449 52.102253 -6.299669 3.613874 -9.196437 5.663523 3.117367 -1.885965 -24.976061 -15.706779 73.877296 4.183881 -0.131047 19.298788 -2.943991 15.030518 
-21.609127 40.834335 11.498449 3.706067 -2.943062 150.570923 38.904179 -11.111542 3.127069 -20.839844 0.000000 0.000000 -10.103292 10.325092 40.197273 8.603792 -1.684224 0.126603 -4.754609 -0.109183 -0.002653 -52.355549 -18.753744 -1.839238 -38.750095 -10.959701 11.546193 162.555283 191.998520 79.412827 4.754609 0.109183 -0.002672 27.827051 39.678658 -14.286334 75.966049 13.883448 -4.325236 163.340302 172.526413 -1.717287 -28.898779 14.975272 8.434722 38.964729 -7.418988 1.299481 -0.541354 -1.809223 0.162027 -15.788811 -24.113979 -16.484318 80.621315 10.243441 -1.457343 9.494589 -6.118611 10.969832 
-18.803333 42.433105 11.327841 3.301625 -4.592008 167.478806 40.303638 -10.807636 0.719573 -20.839844 0.000000 0.000000 -11.457512 10.708700 29.148188 8.603792 -1.684224 0.126603 -4.754609 -0.109183 -0.002653 -61.864391 -29.846937 0.107621 -40.173477 -6.321534 4.926937 155.241928 188.500198 80.545288 4.754609 0.109183 -0.002672 33.383881 53.662449 -7.673133 92.679222 18.584888 -9.686157 163.206055 170.340652 0.364759 -23.657457 16.020700 12.048384 32.473362 -9.713243 2.171447 7.192391 -6.199309 3.124616 -29.224682 -25.463100 -15.606276 77.682144 12.479464 -3.522802 2.287825 -8.594450 7.135581 
-15.755433 43.275406 10.601489 -177.507675 -174.409561 6.719196 41.404964 -8.109912 -2.381890 -20.839844 0.000000 0.000000 -12.802642 10.604901 17.280764 8.603792 -1.684224 0.126603 -4.754609 -0.109183 -0.002653 -67.056847 -40.546528 4.254620 -46.872612 -5.527270 -1.572302 153.513351 187.386932 86.439972 4.754609 0.109183 -0.002672 55.413654 61.979309 14.129424 99.780128 25.312273 -10.562902 164.606903 166.647934 -2.603609 -21.716177 20.357363 14.283921 39.531578 -10.436902 3.005778 7.691276 -3.408406 9.735563 -38.064274 -30.016956 -13.512356 68.917778 10.681280 -4.340939 -1.788492 -7.929294 4.174729 
-12.773424 43.301460 9.180980 1.590988 -6.081656 -153.869858 41.534313 -4.797971 -4.774168 -20.839844 0.000000 0.000000 -13.688712 9.730744 4.889939 8.603792 -1.684224 0.126603 -4.754609 -0.109183 -0.002653 -63.246826 -50.252254 4.632869 -55.768162 -6.421435 -9.248522 156.044662 188.809326 96.486557 4.754609 0.109183 -0.002672 73.937424 56.089386 31.039671 100.279114 32.396660 -6.122339 165.677841 162.349609 -10.751685 -21.259295 26.141331 13.387023 49.880611 -7.265447 1.268027 6.715648 1.324137 13.002418 -39.653355 -37.424732 -12.406954 57.031029 7.675758 -2.050140 -3.011466 -3.472388 3.378635 
-10.128035 42.619545 7.297164 0.363516 -6.288937 -136.183228 40.561024 -2.723951 -5.873390 -20.839844 0.000000 0.000000 -13.931877 8.375728 -7.351593 8.603792 -1.684224 0.126603 -4.754609 -0.109183 -0.002653 -46.241875 -55.022404 -7.050471 -65.525368 -5.620501 -18.693068 160.222916 190.531921 108.094803 4.754609 0.109183 -0.002672 73.479912 43.231895 29.049963 100.386040 36.538048 0.788162 165.076721 157.127441 -21.431002 -19.422184 31.469782 12.323012 54.932537 -2.668431 -1.548685 10.002691 2.833716 12.804394 -35.387447 -41.206013 -7.767700 41.712124 1.552500 1.210436 -0.348842 -6.878279 9.155380 
